<?xml version="1.0" encoding="UTF-8"?><svg id="Capa_2" xmlns="http://www.w3.org/2000/svg" viewBox="0 0 51.07 51.08"><defs><style>.cls-1{fill:#fff;}</style></defs><g id="Capa_1-2"><path class="cls-1" d="M51.07,5.19v40.7c-.03.11-.08.21-.1.32-.5,2.22-1.81,3.75-3.95,4.54-.37.14-.75.22-1.13.33H5.19c-.11-.03-.21-.08-.32-.1C2.07,50.41.01,48.01,0,45.2c-.01-13.1-.01-26.2,0-39.3C.01,2.69,2.69.01,5.9.01c13.1-.01,26.19-.01,39.29,0,1.91,0,3.45.85,4.64,2.34.67.84.97,1.83,1.24,2.84ZM25.54,47.09c6.42,0,12.83,0,19.25,0,1.52,0,2.3-.78,2.3-2.3,0-12.83,0-25.67,0-38.5,0-1.52-.78-2.3-2.3-2.3-12.83,0-25.66,0-38.49,0-1.52,0-2.3.77-2.3,2.3,0,12.83,0,25.67,0,38.5,0,1.52.78,2.3,2.3,2.3,6.42,0,12.83,0,19.25,0Z"/><path class="cls-1" d="M42.08,42.18h-6.86c0-.2,0-.38,0-.56,0-3.72,0-7.45-.01-11.17,0-.71-.07-1.43-.19-2.13-.39-2.3-1.95-3.4-4.26-3.04-1.9.29-3.01,1.38-3.39,3.4-.15.8-.21,1.62-.21,2.43-.02,3.49,0,6.98,0,10.47,0,.18,0,.36,0,.58h-6.75v-22.48h6.73v2.97c.32-.41.54-.74.8-1.02,1.36-1.49,3.1-2.19,5.07-2.34,1.72-.13,3.42.03,5.02.75,2.01.91,3.11,2.57,3.56,4.65.29,1.32.48,2.69.5,4.04.06,4.39.03,8.78.03,13.17,0,.08,0,.16-.02.28Z"/><path class="cls-1" d="M9.02,19.68h6.92v22.5h-6.92v-22.5Z"/><path class="cls-1" d="M16.66,12.5c-.01,2.25-1.87,4.07-4.12,4.06-2.25-.01-4.07-1.87-4.06-4.12.01-2.25,1.86-4.07,4.12-4.06,2.25.01,4.07,1.86,4.06,4.12Z"/></g></svg>