<?xml version="1.0" encoding="UTF-8"?><svg id="Capa_2" xmlns="http://www.w3.org/2000/svg" viewBox="0 0 78.31 72.45"><defs><style>.cls-1{fill:#fff;}</style></defs><g id="Capa_1-2"><path class="cls-1" d="M76.56,60.28c.36.03.68-.02.87.1.33.22.82.55.82.84.03,2.11.15,4.24-.12,6.32-.36,2.77-2.79,4.74-5.58,4.89-.19.01-.38.01-.57.01-21.87,0-43.75,0-65.62,0-2.97,0-5.31-1.65-6.07-4.33-.21-.74-.24-1.54-.27-2.32-.04-1.19-.01-2.38-.01-3.57q0-1.7,1.74-1.98c0-.32,0-.66,0-1,0-13.72,0-27.45,0-41.17,0-1.23.28-2.3,1.24-3.12.74-.63,1.6-.84,2.56-.84,4.71.01,9.42,0,14.13,0,.32,0,.64,0,1.02,0,.09-1.12.18-2.17.27-3.21.04-.43.1-.86.12-1.29.03-.71.39-1.02,1.07-1.2,2.47-.67,4.98-1.27,7.38-2.14,3.25-1.17,6.03-3.13,8.5-5.55.98-.96,1.27-.97,2.22-.02,4.26,4.24,9.53,6.44,15.32,7.59,1.54.3,1.58.35,1.73,1.93.12,1.26.2,2.52.31,3.89.37,0,.68,0,1,0,4.63,0,9.26.08,13.89-.03,2.38-.06,4.1,1.53,4.09,4.12-.07,13.67-.03,27.34-.03,41.01,0,.34,0,.69,0,1.07ZM9.34,55.19h59.61V21.18h-11.4c-.05.1-.1.17-.11.25-.04.21-.06.43-.09.64-.38,3.05-1.14,6-2.46,8.78-2.57,5.42-6.8,9.1-12.23,11.43-4.34,1.87-2.69,1.85-6.85.07-7.66-3.27-12.5-8.98-14.3-17.17-.29-1.31-.47-2.65-.71-4h-11.46v34ZM20.65,16.06c-.38,0-.67,0-.96,0-4.6,0-9.2,0-13.81,0-1.73,0-2.17.44-2.17,2.14,0,13.72,0,27.44,0,41.17,0,.29,0,.58,0,.97.44,0,.78,0,1.12,0,7.99,0,15.97,0,23.96,0,1.51,0,1.66.15,1.7,1.67.04,1.56.81,2.32,2.38,2.32,4.2,0,8.39,0,12.59,0,1.58,0,2.34-.75,2.38-2.32.04-1.52.19-1.67,1.7-1.67,7.99,0,15.97,0,23.96,0,.34,0,.69,0,1.07,0,.02-.33.05-.57.05-.81,0-13.83,0-27.66,0-41.49,0-1.49-.51-1.98-2.01-1.98-4.68,0-9.37,0-14.05,0h-.88v3.13c.32,0,.61,0,.9,0,3.6,0,7.2,0,10.8,0,1.31,0,1.59.27,1.59,1.55,0,11.64,0,23.28,0,34.92,0,1.26-.27,1.53-1.52,1.53-20.19,0-40.39,0-60.58,0-1.24,0-1.51-.27-1.51-1.53,0-11.64,0-23.28,0-34.92,0-1.26.28-1.54,1.51-1.54,3.63,0,7.25,0,10.88,0,.29,0,.58,0,.9,0v-3.13ZM1.96,62.29c0,1.23,0,2.34,0,3.45,0,3.16,1.59,4.75,4.72,4.75,21.65,0,43.3,0,64.95,0,.22,0,.43,0,.65,0,1.98-.05,3.7-1.35,3.95-3.3.2-1.58.04-3.21.04-4.86-.15-.01-.28-.03-.41-.03-8.47,0-16.94,0-25.41-.01-.53,0-.66.2-.74.69-.29,1.83-1.86,3.28-3.69,3.3-4.57.04-9.15.04-13.72,0-1.76-.01-3.4-1.4-3.65-3.14-.12-.81-.48-.85-1.11-.85-8.2.01-16.4,0-24.6,0-.29,0-.59,0-.98,0ZM39.21,2.34c-.96.81-1.82,1.6-2.74,2.3-3.82,2.86-8.17,4.49-12.81,5.44-.44.09-.74.18-.75.74-.04,3.22-.27,6.44-.11,9.64.21,4.21,1.35,8.2,3.64,11.81,2.63,4.14,6.47,6.73,10.87,8.67,1.28.56,2.35.58,3.66.03,8.17-3.42,13.01-9.39,14.32-18.2.6-4.02.48-8.04.12-12.06-.05-.55-.4-.55-.77-.63-3.06-.62-6.01-1.58-8.81-2.98-2.44-1.22-4.63-2.79-6.62-4.76Z"/><path class="cls-1" d="M19.05,67.64c-.71.01-1.31-.57-1.3-1.27,0-.67.57-1.23,1.25-1.24.72-.01,1.31.56,1.3,1.27,0,.67-.57,1.23-1.25,1.24Z"/><path class="cls-1" d="M60.58,66.36c.02.66-.54,1.25-1.21,1.28-.71.03-1.33-.53-1.34-1.23-.01-.67.53-1.25,1.21-1.28.72-.03,1.33.52,1.34,1.23Z"/><path class="cls-1" d="M14.72,67.65c-.69,0-1.23-.55-1.24-1.24-.01-.72.55-1.28,1.28-1.28.72,0,1.27.59,1.24,1.31-.03.69-.58,1.21-1.28,1.2Z"/><path class="cls-1" d="M64.83,66.38c0,.69-.53,1.24-1.21,1.26-.72.02-1.3-.53-1.31-1.25,0-.69.53-1.24,1.22-1.26.73-.02,1.3.53,1.3,1.25Z"/><path class="cls-1" d="M10.48,65.13c.72,0,1.27.58,1.24,1.31-.02.69-.57,1.21-1.26,1.21-.73,0-1.27-.58-1.24-1.31.03-.69.57-1.21,1.26-1.2Z"/><path class="cls-1" d="M69.1,66.41c-.01.7-.54,1.23-1.23,1.24-.72.01-1.28-.55-1.27-1.28.01-.72.59-1.26,1.31-1.23.69.03,1.2.58,1.19,1.27Z"/><path class="cls-1" d="M24.42,17.15c.09-1.82.17-3.07.21-4.31.02-.78.41-1.13,1.15-1.31,4.03-.99,7.8-2.56,11.21-4.94.49-.34.96-.7,1.42-1.08.5-.4.97-.41,1.46,0,3.78,3.04,8.12,4.91,12.79,6.07.51.13.92.35.97.94.42,5.52.29,10.98-1.97,16.18-1.97,4.54-5.37,7.68-9.78,9.75-3.18,1.49-2.21,1.53-5.46,0-6.85-3.21-10.55-8.73-11.56-16.12-.26-1.9-.34-3.82-.45-5.16ZM51.83,16.85c0-.87-.04-1.73.01-2.6.04-.68-.21-.97-.89-1.15-4.11-1.1-7.93-2.84-11.38-5.36-.18-.13-.63-.14-.81-.01-3.52,2.58-7.42,4.31-11.61,5.44-.46.12-.68.32-.66.82.07,2.38-.04,4.77.2,7.13.72,7.26,4.2,12.65,10.96,15.77,1.07.5,1.92.53,3.01.01,4.85-2.31,8.37-5.79,10-11.01.92-2.95,1.25-5.97,1.17-9.05Z"/><path class="cls-1" d="M43.75,17.36c.44,0,.84-.01,1.23,0,.98.04,1.57.52,1.58,1.48.03,3.22.03,6.43,0,9.65,0,.92-.58,1.46-1.51,1.47-3.92.02-7.84.02-11.76,0-.96,0-1.52-.56-1.53-1.53-.03-3.16-.03-6.33,0-9.49,0-1.06.57-1.55,1.65-1.58.37-.01.75,0,1.24,0-.1-1.94.25-3.67,1.89-4.86.92-.66,1.94-.91,3.06-.82,2.5.2,3.75,1.85,4.15,5.67ZM44.63,19.36h-10.88v8.55c.11.05.16.08.21.08,3.38,0,6.76,0,10.14.03.53,0,.53-.31.53-.69,0-1.38,0-2.76,0-4.14,0-1.26,0-2.53,0-3.84ZM41.69,17.33c.13-1.41.02-2.65-1.3-3.39-.93-.52-1.88-.46-2.73.17-1.09.81-1.17,1.96-1,3.21h5.03Z"/><path class="cls-1" d="M41.15,22.57s-.08.84-.09.87c-.25.44-.29.45-.64.77-.33.31-.49.58-.44,1.02.02.13.01.27,0,.4-.05.49-.32.79-.83.78-.48-.01-.79-.31-.76-.76.04-.6-.1-1.04-.48-1.46-.48-.53-.78-1.25-.56-1.94.33-1.03,1.4-1.56,2.35-1.27.83.25,1.3.66,1.46,1.6Z"/></g></svg>