<?xml version="1.0" encoding="UTF-8"?><svg id="Capa_2" xmlns="http://www.w3.org/2000/svg" viewBox="0 0 51.01 51.01"><defs><style>.cls-1{fill:#fff;}.cls-2{fill:none;stroke:#fff;stroke-miterlimit:10;}</style></defs><g id="Capa_1-2"><circle class="cls-2" cx="25.51" cy="25.51" r="25.01"/><path class="cls-1" d="M16.46,32.72c-.37,0-.7,0-1.02,0-1.72-.01-2.92-1.2-2.92-2.92,0-4.08,0-8.16,0-12.24,0-1.72,1.22-2.93,2.94-2.93,6.7,0,13.41,0,20.11,0,1.72,0,2.94,1.2,2.94,2.93,0,4.08,0,8.16,0,12.24,0,1.49-.95,2.63-2.37,2.88-.22.04-.44.04-.66.04-3.9,0-7.79,0-11.69,0-.21,0-.36.06-.5.22-1.59,1.67-3.19,3.33-4.78,5-.31.33-.67.52-1.13.42-.57-.12-.91-.58-.91-1.23,0-1.35,0-2.7,0-4.05,0-.1,0-.21,0-.35ZM17.6,37.13s.06.04.09.06c.06-.08.1-.16.17-.23,1.61-1.68,3.23-3.36,4.85-5.05.21-.22.44-.32.74-.32,3.99,0,7.99,0,11.98,0,.09,0,.18,0,.26,0,.84-.01,1.5-.57,1.66-1.39.02-.09.03-.17.03-.26,0-4.17,0-8.34,0-12.51,0-.67-.33-1.2-.94-1.48-.28-.13-.61-.18-.92-.19-6.67-.01-13.34,0-20.01,0-.05,0-.11,0-.16,0-1,.03-1.71.75-1.71,1.75,0,4.12,0,8.23,0,12.35,0,.99.74,1.72,1.72,1.73.48,0,.95,0,1.43,0,.63,0,.81.17.81.8,0,1.48,0,2.97,0,4.45,0,.1,0,.19,0,.29Z"/><path class="cls-1" d="M25.48,24.24c-2.17,0-4.34,0-6.52,0-.1,0-.19,0-.29,0-.29-.03-.51-.26-.51-.54,0-.28.2-.53.49-.57.09-.01.18,0,.26,0,4.4,0,8.79,0,13.19,0,.07,0,.14,0,.21,0,.32.03.55.27.54.58,0,.3-.23.52-.54.54-.1,0-.19,0-.29,0-2.18,0-4.36,0-6.54,0Z"/><path class="cls-1" d="M24.37,27.63c-1.78,0-3.57,0-5.35,0-.07,0-.14,0-.21,0-.4,0-.66-.24-.65-.57,0-.33.26-.55.65-.55,3.72,0,7.44,0,11.15,0,.38,0,.63.23.64.56,0,.33-.25.56-.63.56-1.86,0-3.73,0-5.59,0Z"/><path class="cls-1" d="M21.55,20.85c-.93,0-1.86,0-2.78,0-.46,0-.73-.41-.55-.79.12-.25.34-.33.61-.33,1.27,0,2.54,0,3.82,0,.54,0,1.08,0,1.62,0,.43,0,.68.21.68.57,0,.36-.24.56-.68.56-.9,0-1.8,0-2.7,0Z"/></g></svg>