<?xml version="1.0" encoding="UTF-8"?><svg id="Capa_2" xmlns="http://www.w3.org/2000/svg" viewBox="0 0 51.01 51.01"><defs><style>.cls-1{fill:#fff;}.cls-2{fill:none;stroke:#fff;stroke-miterlimit:10;}</style></defs><g id="Capa_1-2"><circle class="cls-2" cx="25.51" cy="25.51" r="25.01"/><path class="cls-1" d="M11.74,24.7c.07-.52.12-1.05.21-1.56.77-4.13,2.97-7.29,6.54-9.47,2.33-1.42,4.88-2.05,7.6-1.92,3.9.19,7.16,1.76,9.76,4.67,1.95,2.19,3.1,4.78,3.36,7.7.4,4.35-.97,8.11-4.06,11.2-2.06,2.06-4.57,3.3-7.45,3.78-.46.08-.92.12-1.38.18h-1.61c-.38-.05-.76-.09-1.14-.14-1.77-.25-3.42-.83-4.97-1.72-.1-.06-.26-.07-.37-.04-.71.2-1.4.43-2.11.64-1.04.32-2.07.64-3.11.95-.48.14-.82-.19-.7-.68.01-.06.03-.12.05-.18.46-1.66.92-3.33,1.39-4.99.06-.23.05-.4-.07-.6-.84-1.39-1.4-2.88-1.68-4.47-.11-.59-.16-1.19-.24-1.78,0-.52,0-1.04,0-1.56ZM13.57,37.68c.11-.03.17-.04.23-.06,1.39-.43,2.78-.84,4.15-1.29.42-.14.75-.11,1.14.13,1.72,1.04,3.59,1.6,5.59,1.73,2.61.17,5.05-.42,7.31-1.75,4.41-2.58,6.91-7.8,6.1-12.84-.43-2.72-1.58-5.1-3.55-7.03-3.23-3.18-7.12-4.38-11.56-3.52-3.59.7-6.37,2.69-8.3,5.81-1.83,2.96-2.3,6.17-1.54,9.56.31,1.37.86,2.66,1.61,3.84.16.24.2.49.11.76-.11.35-.2.71-.3,1.06-.33,1.18-.66,2.36-1,3.59Z"/><path class="cls-1" d="M29.22,33.86c-2.5-.09-4.71-.97-6.67-2.47-2.37-1.81-4.11-4.12-5.31-6.85-.88-2-.68-3.91.38-5.77.3-.52.69-.98,1.05-1.46.08-.1.2-.22.31-.24.56-.06,1.12-.11,1.68-.1.19,0,.44.19.56.36.72,1.1,1.36,2.25,1.81,3.5.2.55.07,1.07-.24,1.54-.24.36-.53.7-.82,1.03-.12.14-.15.26-.09.43.23.65.65,1.18,1.1,1.67,1.22,1.32,2.65,2.38,4.21,3.26.45.25.53.25.87-.14.47-.54.93-1.09,1.37-1.65.38-.49.84-.65,1.41-.42.26.11.51.26.75.41.92.57,1.84,1.14,2.76,1.71.38.24.45.38.36.82-.18.94-.49,1.83-1.09,2.6-.83,1.06-1.97,1.55-3.27,1.7-.38.04-.77.05-1.15.07ZM29.4,32.77c.18,0,.36,0,.54,0,1.96-.06,3.31-1.2,3.68-3.12.01-.07-.02-.19-.08-.22-.97-.61-1.94-1.22-2.92-1.82-.16-.1-.26-.08-.4.09-.47.59-.91,1.21-1.46,1.71-.85.79-1.16.73-1.97.32-1.97-1.02-3.69-2.35-5.08-4.08-.41-.5-.72-1.06-.9-1.7-.12-.44-.1-.81.26-1.15.27-.25.49-.55.71-.84.26-.33.35-.69.13-1.1-.45-.85-.9-1.71-1.33-2.57-.13-.27-.32-.33-.6-.31-.4.02-.72.13-.92.51-.28.52-.63,1-.87,1.54-.57,1.29-.62,2.6-.06,3.91,1.17,2.71,2.87,5.02,5.26,6.78,1.77,1.31,3.77,2.04,6,2.05Z"/></g></svg>