<?xml version="1.0" encoding="UTF-8"?><svg id="Capa_2" xmlns="http://www.w3.org/2000/svg" viewBox="0 0 48.21 44.64"><defs><style>.cls-1{fill:#fff;}</style></defs><g id="Capa_1-2"><path class="cls-1" d="M14.89,41.05c-1.09,1.1-2.11,2.13-3.13,3.16-.59.59-.87.58-1.45,0-1.04-1.04-2.09-2.06-3.1-3.12-.23-.24-.36-.57-.61-.99-.57,0-1.32.03-2.06,0-.57-.03-1.17-.06-1.71-.23-1.6-.5-2.68-1.94-2.79-3.61-.01-.19-.02-.37-.02-.56C0,25.26.01,14.84,0,4.42,0,2.87.53,1.62,1.81.73,2.56.2,3.4,0,4.32,0c4.83,0,9.65,0,14.48,0,8.38,0,16.75,0,25.13,0,2.1,0,3.73,1.25,4.17,3.22.09.39.11.81.11,1.22,0,10.4,0,20.81,0,31.21,0,2.72-1.72,4.44-4.45,4.44-8.32,0-16.65,0-24.97-.01-.5,0-.73.15-.84.63-.11.48-.28.95-.45,1.41-.23.64-.79.78-1.28.31-.44-.43-.85-.88-1.33-1.38ZM18.64,38.66h.61c8.17,0,16.34,0,24.51,0,1.93,0,3.01-1.08,3.01-3.01,0-8.2,0-16.41,0-24.61,0-.18-.02-.36-.03-.53H1.47c-.01.16-.03.28-.03.4,0,8.31,0,16.61,0,24.92,0,1.71,1.12,2.81,2.83,2.83,1.18.01,2.35,0,3.53,0,.16,0,.37-.01.48-.11.69-.66,1.35-1.34,2.07-2.05-.43-.41-.83-.78-1.22-1.17-.68-.67-.56-1.2.34-1.49,3.44-1.11,6.87-2.21,10.31-3.32.35-.11.69-.22,1.01.08.33.32.22.67.1,1.04-.69,2.12-1.37,4.25-2.05,6.37-.06.19-.11.38-.19.65ZM46.74,9.01c.01-.14.03-.26.03-.37,0-1.47.02-2.93,0-4.4-.02-1.7-1.15-2.8-2.86-2.8-13.21,0-26.41,0-39.62,0-1.73,0-2.84,1.1-2.86,2.85-.01.97,0,1.94,0,2.92,0,.59,0,1.18,0,1.8h45.31ZM16.45,40.74c.94-2.92,1.82-5.68,2.73-8.52-2.86.92-5.61,1.8-8.54,2.74.26.21.45.33.61.48.18.16.35.33.51.51.38.41.39.76,0,1.16-.63.65-1.27,1.28-1.91,1.92-.44.44-.89.88-1.27,1.25.88.88,1.7,1.71,2.55,2.56,1.03-1.03,2.08-2.1,3.14-3.16.43-.43.81-.43,1.23,0,.31.31.59.65.95,1.06Z"/><path class="cls-1" d="M8.67,25.63c.6-1.43,1.16-2.75,1.7-4.07.14-.35.31-.66.74-.67.46-.01.64.32.79.68.49,1.18.98,2.36,1.47,3.54.06.15.14.3.24.53.56-1.34,1.09-2.61,1.62-3.88.07-.16.12-.32.21-.47.19-.33.48-.49.86-.36.4.14.54.45.45.86-.03.13-.08.26-.14.38-.75,1.79-1.49,3.58-2.24,5.37-.15.36-.33.7-.78.69-.45,0-.62-.34-.77-.71-.54-1.32-1.1-2.63-1.68-4.04-.13.27-.22.47-.3.67-.49,1.16-.97,2.32-1.45,3.49-.14.34-.37.66-.74.57-.27-.06-.58-.32-.69-.56-.82-1.87-1.59-3.76-2.37-5.65-.21-.5-.06-.9.35-1.07.39-.16.76.03.96.51.52,1.22,1.02,2.45,1.54,3.67.06.14.12.27.23.51Z"/><path class="cls-1" d="M24.1,23.49c-.6,1.43-1.16,2.75-1.7,4.07-.15.37-.33.69-.78.68-.42,0-.6-.32-.75-.67-.76-1.82-1.52-3.65-2.28-5.47-.02-.05-.04-.1-.05-.14-.17-.48-.04-.86.37-1.02.38-.15.75.02.94.46.51,1.19,1,2.39,1.5,3.58.08.18.16.37.27.62.09-.19.17-.32.22-.45.51-1.22,1.03-2.45,1.53-3.68.14-.34.37-.66.74-.56.26.07.57.32.69.57.54,1.19,1.03,2.41,1.53,3.62.06.15.14.29.24.53.56-1.34,1.08-2.59,1.61-3.85.05-.13.1-.25.16-.38.21-.44.57-.62.94-.47.4.16.57.55.37,1.02-.79,1.92-1.58,3.84-2.41,5.75-.1.23-.45.52-.66.5-.25-.01-.6-.27-.71-.52-.55-1.21-1.04-2.44-1.55-3.67-.06-.14-.12-.27-.23-.53Z"/><path class="cls-1" d="M37.09,23.47c-.6,1.43-1.15,2.75-1.7,4.07-.15.37-.32.7-.77.7-.45,0-.63-.33-.78-.7-.74-1.79-1.49-3.58-2.24-5.37-.05-.11-.1-.22-.13-.33-.1-.42.02-.76.45-.9.4-.14.71.03.88.41.39.89.75,1.79,1.13,2.68.21.51.43,1.02.68,1.63.43-1.03.82-1.96,1.22-2.9.18-.42.36-.85.53-1.27.14-.35.36-.66.74-.56.27.07.58.32.69.57.6,1.33,1.14,2.69,1.74,4.13.1-.2.17-.32.23-.45.51-1.21,1.01-2.42,1.52-3.63.24-.56.59-.77,1-.6.44.18.55.58.31,1.17-.76,1.82-1.52,3.64-2.28,5.47-.15.35-.32.66-.75.66-.45,0-.63-.32-.78-.69-.54-1.32-1.1-2.63-1.7-4.08Z"/><path class="cls-1" d="M3.61,5.21c.02-1.29,1.05-2.3,2.33-2.29,1.29.01,2.33,1.08,2.3,2.38-.03,1.26-1.1,2.29-2.37,2.27-1.27-.02-2.29-1.09-2.26-2.36ZM5.04,5.22c-.01.49.36.89.84.91.49.02.92-.4.92-.89,0-.48-.39-.88-.88-.88-.49,0-.88.37-.89.86Z"/><path class="cls-1" d="M16.49,5.25c0-1.31,1.05-2.34,2.35-2.32,1.27.02,2.3,1.07,2.29,2.34-.01,1.26-1.06,2.3-2.33,2.3-1.26,0-2.31-1.05-2.31-2.32ZM18.81,4.36c-.49,0-.87.38-.88.87,0,.49.37.89.85.9.49.02.92-.41.91-.9,0-.48-.41-.87-.89-.87Z"/><path class="cls-1" d="M10.05,5.2c.03-1.29,1.05-2.29,2.34-2.28,1.29.01,2.33,1.09,2.3,2.38-.03,1.26-1.11,2.29-2.37,2.26-1.27-.03-2.29-1.09-2.26-2.36ZM13.25,5.25c0-.48-.39-.88-.87-.89-.49,0-.88.37-.9.86-.02.51.39.93.89.92.47,0,.88-.42.88-.89Z"/></g></svg>