<?xml version="1.0" encoding="UTF-8"?><svg id="Capa_2" xmlns="http://www.w3.org/2000/svg" viewBox="0 0 725.88 725.88"><defs><style>.cls-1{fill:#fff;}</style></defs><g id="Capa_1-2"><path class="cls-1" d="M362.96,725.88C162.83,725.88,0,563.05,0,362.93S162.83,0,362.96,0s362.93,162.8,362.93,362.93-162.8,362.96-362.93,362.96ZM362.96,31.45C180.16,31.45,31.45,180.16,31.45,362.93s148.7,331.5,331.5,331.5,331.47-148.7,331.47-331.5S545.72,31.45,362.96,31.45Z"/><path class="cls-1" d="M284.07,539.72h0c-13.83-13.83-13.83-36.25,0-50.08l123.61-123.61-129.81-129.81c-13.83-13.83-13.83-36.25,0-50.08h0c13.83-13.83,36.25-13.83,50.08,0l179.9,179.89-173.7,173.69c-13.83,13.83-36.25,13.83-50.08,0Z"/></g></svg>