<?xml version="1.0" encoding="UTF-8"?><svg id="Capa_2" xmlns="http://www.w3.org/2000/svg" viewBox="0 0 51.01 51.01"><defs><style>.cls-1{fill:#fff;}.cls-2{fill:none;stroke:#fff;stroke-miterlimit:10;}</style></defs><g id="Capa_1-2"><circle class="cls-2" cx="25.51" cy="25.51" r="25.01"/><path class="cls-1" d="M25.48,35.59c-4.02,0-8.05,0-12.07,0-.58,0-1.11-.12-1.56-.51-.5-.44-.73-1-.73-1.67,0-3.42,0-6.83,0-10.25,0-1.81,0-3.62,0-5.42,0-1.46.85-2.31,2.3-2.31,5.87,0,11.74,0,17.61,0,2.21,0,4.41,0,6.62,0,1.07,0,1.86.54,2.14,1.46.07.22.1.45.1.67,0,5.3,0,10.6,0,15.9,0,1.16-.82,2.02-1.97,2.11-.13.01-.27.01-.4.01-4.01,0-8.03,0-12.04,0ZM12.49,17.42c0,.15,0,.22,0,.3,0,5.21,0,10.43,0,15.64,0,.06,0,.11,0,.17.03.36.26.62.62.67.13.02.27.02.4.02,7.99,0,15.98,0,23.97,0,.08,0,.15,0,.23,0,.54-.02.81-.28.81-.82,0-5.24,0-10.48,0-15.73,0-.07-.01-.14-.03-.23-.12.08-.2.13-.29.19-4.04,2.77-8.08,5.54-12.12,8.31-.5.34-.66.34-1.16,0-4-2.74-8-5.48-12-8.23-.13-.09-.26-.18-.45-.3ZM36.94,16.82H14.07c.11.08.17.13.23.17,3.65,2.5,7.29,4.99,10.93,7.5.22.15.35.14.57,0,3.62-2.5,7.26-4.98,10.88-7.47.08-.05.15-.11.26-.2Z"/></g></svg>