<?xml version="1.0" encoding="UTF-8"?><svg id="Capa_2" xmlns="http://www.w3.org/2000/svg" viewBox="0 0 49.88 49.88"><defs><style>.cls-1{fill:#fff;}</style></defs><g id="Capa_1-2"><path class="cls-1" d="M5.16,0c13.18,0,26.37,0,39.55,0,.07.03.15.07.22.08,1.61.26,2.88,1.07,3.85,2.37.6.81.88,1.74,1.09,2.71v39.55c-.03.09-.07.18-.09.27-.53,2.91-2.88,4.88-5.86,4.89-12.66,0-25.32,0-37.98-.01-.67,0-1.37-.11-2-.32C1.5,48.72,0,46.52,0,43.83,0,31.23,0,18.64,0,6.05c0-.13,0-.26,0-.39C.1,3.83.86,2.36,2.29,1.22c.85-.68,1.84-.99,2.88-1.22ZM32.95,45.98h.54c3.41,0,6.82,0,10.23,0,1.51,0,2.27-.76,2.27-2.28,0-12.5,0-25,0-37.5,0-1.56-.74-2.3-2.29-2.3-12.5,0-25,0-37.5,0-1.55,0-2.29.75-2.29,2.3,0,12.5,0,25,0,37.5,0,1.52.75,2.28,2.27,2.28,6.74,0,13.47,0,20.21,0,.16,0,.31-.01.48-.02v-15.88h-5.79v-6.03h5.82c0-.23,0-.41,0-.58,0-1.35-.03-2.7.03-4.04.17-3.92,2.92-7.27,6.73-8.22,2.02-.51,4.07-.23,6.11-.27.02,0,.05.04.07.05v5.97c-.18,0-.34,0-.5,0-1.15,0-2.31-.02-3.46,0-1.53.03-2.75.99-2.86,2.45-.12,1.53-.03,3.07-.03,4.66h6.97c-.34,2.03-.66,4.01-1,6.04h-6v15.87Z"/></g></svg>