<?xml version="1.0" encoding="UTF-8"?><svg id="Capa_2" xmlns="http://www.w3.org/2000/svg" xmlns:xlink="http://www.w3.org/1999/xlink" viewBox="0 0 312.42 71.18"><defs><style>.cls-1{fill:#1d71b7;}.cls-2{fill:url(#Degradado_sin_nombre_27-2);}.cls-3{fill:url(#Degradado_sin_nombre_27);}.cls-4{opacity:.7;}.cls-5{fill:url(#Degradado_sin_nombre_27-3);}</style><radialGradient id="Degradado_sin_nombre_27" cx="21.6" cy="18.35" fx="21.6" fy="18.35" r="5.82" gradientUnits="userSpaceOnUse"><stop offset="0" stop-color="#289524"/><stop offset=".41" stop-color="#259224"/><stop offset=".64" stop-color="#1f8a27"/><stop offset=".82" stop-color="#137c2b"/><stop offset=".98" stop-color="#026931"/><stop offset="1" stop-color="#063"/></radialGradient><radialGradient id="Degradado_sin_nombre_27-2" cx="38.23" cy="49.89" fx="38.23" fy="49.89" r="30.94" xlink:href="#Degradado_sin_nombre_27"/><radialGradient id="Degradado_sin_nombre_27-3" cx="15.78" cy="21.95" fx="15.78" fy="21.95" r="4.85" xlink:href="#Degradado_sin_nombre_27"/></defs><g id="Capa_1-2"><path class="cls-4" d="M76.35,34.63h5.88l12.47,29.27h-6.69l-2.66-6.52h-12.28l-3.55,8.67s-3.14-1.23-5.8-1.68l12.63-29.73ZM75.34,51.73h7.72l-3.85-9.42-3.87,9.42h0ZM107.67,64.36c-3.97,0-7.06-1.09-9.26-3.29-2.2-2.19-3.31-5.4-3.31-9.62v-16.62h6.39v16.44c0,2.34.55,4.12,1.65,5.35,1.09,1.23,2.63,1.85,4.62,1.85s3.52-.6,4.62-1.79c1.09-1.19,1.64-2.92,1.64-5.19v-16.66h6.41v16.4c0,4.31-1.13,7.58-3.38,9.8-2.25,2.23-5.38,3.34-9.38,3.34h0ZM123.32,63.9v-29.07h11.33c2.24,0,4.33.37,6.26,1.11,1.93.74,3.57,1.76,4.91,3.04,1.34,1.29,2.39,2.82,3.14,4.59.75,1.78,1.13,3.68,1.13,5.71v.08c0,2.03-.38,3.94-1.13,5.72-.75,1.78-1.81,3.32-3.14,4.62-1.34,1.29-2.98,2.32-4.91,3.07-1.93.75-4.02,1.13-6.26,1.13h-11.33ZM129.71,58.12h4.95c2.61,0,4.72-.8,6.33-2.4,1.62-1.61,2.42-3.69,2.42-6.28v-.08c0-2.58-.8-4.68-2.42-6.31-1.61-1.63-3.72-2.44-6.33-2.44h-4.95v17.51h0ZM152.45,63.9v-29.07h6.41v29.07h-6.41ZM169.28,63.9v-23.17h-8.84v-5.9h24.07v5.9h-8.84v23.17h-6.39ZM206.11,63.2c-1.94.8-4,1.2-6.19,1.2s-4.25-.39-6.17-1.18c-1.92-.78-3.56-1.85-4.9-3.19-1.34-1.34-2.39-2.93-3.16-4.77-.77-1.84-1.16-3.78-1.16-5.82v-.08c0-2.04.39-3.98,1.17-5.83.78-1.84,1.84-3.44,3.19-4.79,1.36-1.35,3-2.42,4.93-3.21,1.93-.79,3.99-1.18,6.19-1.18,2.92,0,5.56.66,7.92,2.01,2.37,1.34,4.21,3.14,5.51,5.42,1.31,2.28,1.97,4.78,1.97,7.51v.08c0,2.04-.39,3.99-1.18,5.83-.78,1.84-1.85,3.44-3.2,4.79-1.35,1.35-2.99,2.42-4.92,3.22h0ZM195.46,57.26c1.36.83,2.87,1.25,4.55,1.25s3.18-.41,4.53-1.23c1.35-.82,2.39-1.91,3.11-3.29.73-1.38,1.09-2.89,1.09-4.54v-.08c0-2.53-.83-4.68-2.5-6.46-1.67-1.78-3.78-2.66-6.32-2.66-1.67,0-3.18.41-4.52,1.22-1.34.81-2.37,1.9-3.11,3.28-.73,1.38-1.09,2.89-1.09,4.55v.08c0,1.65.37,3.17,1.11,4.57.75,1.39,1.79,2.5,3.14,3.34h0ZM217.48,63.9v-29.07h13.28c3.67,0,6.5.98,8.47,2.96,1.67,1.66,2.5,3.87,2.5,6.63v.1c0,2.26-.55,4.14-1.66,5.66-1.11,1.51-2.63,2.62-4.57,3.34l7.1,10.38h-7.48l-6.23-9.31h-5.02v9.31h-6.39ZM223.87,48.96h6.48c1.54,0,2.75-.37,3.61-1.13.86-.75,1.29-1.74,1.29-2.99v-.08c0-1.35-.44-2.38-1.33-3.09-.89-.71-2.12-1.07-3.69-1.07h-6.37v8.35h0ZM254.21,64.3c-2.24,0-4.44-.39-6.57-1.18-2.14-.79-4.05-1.94-5.76-3.47l3.77-4.53c2.86,2.35,5.76,3.53,8.68,3.53,1.31,0,2.34-.24,3.08-.73.74-.49,1.11-1.16,1.11-2.01v-.08c0-.57-.15-1.04-.44-1.42-.3-.38-.87-.75-1.72-1.13-.84-.37-2.08-.76-3.7-1.16-.91-.23-1.71-.45-2.38-.66-.67-.21-1.36-.46-2.08-.75-.72-.29-1.32-.59-1.81-.9-.48-.31-.96-.68-1.4-1.11-.46-.44-.82-.91-1.09-1.43-.27-.52-.48-1.12-.64-1.79-.15-.68-.23-1.42-.23-2.23v-.08c0-2.62.95-4.74,2.84-6.35,1.9-1.61,4.35-2.41,7.33-2.41,4.13,0,7.73,1.23,10.78,3.69l-3.32,4.83c-2.77-1.92-5.29-2.88-7.54-2.88-1.19,0-2.11.24-2.77.71-.66.48-.98,1.08-.98,1.83v.08c0,.93.4,1.64,1.22,2.12.81.49,2.5,1.06,5.06,1.7,1.56.41,2.87.84,3.94,1.31,1.07.47,2.02,1.04,2.84,1.72.83.67,1.43,1.48,1.83,2.42.39.94.59,2.03.59,3.27v.08c0,2.82-.98,5.03-2.93,6.62-1.95,1.59-4.53,2.39-7.74,2.39h0Z"/><path class="cls-1" d="M284.38,37.24c-1.79-1.57-4.55-2.36-8.29-2.36h-8.01v29.02h3.58v-10.96h4.25c3.52,0,6.26-.87,8.22-2.61,1.96-1.74,2.94-3.99,2.94-6.75s-.9-4.77-2.69-6.34ZM281.5,48.21c-1.23,1.14-3.31,1.7-6.25,1.7h-3.58v-12h4.16c2.62,0,4.52.49,5.72,1.46,1.19.98,1.79,2.41,1.79,4.3s-.61,3.4-1.83,4.54Z"/><path class="cls-1" d="M301.83,51.2c3.92-1.63,5.88-4.44,5.88-8.43,0-2.36-.83-4.27-2.5-5.72-1.66-1.45-4.42-2.18-8.29-2.18h-8.22v29.02h3.58v-11.67h5.91l9.55,11.67h4.68l-10.59-12.69ZM296.5,49.28h-4.22v-11.36h4.87c4.54,0,6.8,1.68,6.8,5.02,0,2.07-.58,3.64-1.73,4.72-1.16,1.08-3.06,1.62-5.72,1.62Z"/><path class="cls-3" d="M26.79,19.36c-.69-4.68-5.04-7.91-9.71-7.23-.2.03-.4.07-.6.12-.95,5.75,2.87,11.24,8.62,12.31.25.05.5.08.75.1.85-1.57,1.22-3.4.94-5.3Z"/><path class="cls-2" d="M49.78,63.98v-21.21h18.78l3.72-8.1h-25.88c.42.55.84,1.09,1.25,1.65.68.93.96,2.05.77,3.15-.18,1.1-.82,2.09-1.74,2.74-.61.43-1.37.65-2.18.65-1.42,0-2.82-.69-3.57-1.77l-4.06-6.41h-11.41v8.1h14.15v20.69c-.46,0-.92,0-1.38,0-5.79,0-11.3.38-16.34,1.07v-10.63h1.7v-25.29h-11.39v25.29h1.7v12.06c-5.84,1.33-10.64,3.13-13.9,5.23,9.42-2.78,23.05-4.53,38.23-4.53s28.81,1.75,38.23,4.53c-5.42-3.49-15.05-6.13-26.67-7.2Z"/><path class="cls-5" d="M12.59,16.65c-.91,1.36-1.35,3.03-1.09,4.78.55,3.73,4.01,6.31,7.74,5.76.3-.04.6-.11.89-.2-4.03-2.19-6.76-5.93-7.54-10.34Z"/><g class="cls-4"><path d="M40.91,16.45c-.47,2.51-1.52,4.74-3.19,6.65-.38.44-.52.77-.09,1.21.26.27.21.46-.1.67-1.26.86-2.52,1.73-3.76,2.62-.36.26-.56.15-.73-.18-.26-.51-.6-.48-1.1-.3-3.19,1.13-6.44,1.28-9.62.06-5.77-2.21-9.02-7.19-9.2-12.67C12.86,6.88,18.55.61,26.12.04c8.12-.61,15.12,6,14.95,14.13-.02.76-.11,1.52-.17,2.28ZM38.39,16.06c1.14-6.19-2.94-12.2-9.06-13.34-6.36-1.19-12.41,2.92-13.56,9.22-1.14,6.19,3.01,12.21,9.19,13.35,6.34,1.17,12.27-2.9,13.43-9.23Z"/><path d="M41.55,40.66c-2.15-3.39-4.29-6.77-6.44-10.16-.05-.07-.08-.15-.13-.22q-.79-1.17.39-1.99c.95-.66,1.92-1.3,2.85-1.99.44-.33.68-.28,1.01.16,1.24,1.68,2.52,3.33,3.79,5,1.35,1.77,2.72,3.52,4.03,5.31,1.22,1.67.71,3.79-.79,4.83-1.44,1-3.73.48-4.71-.93Z"/><path d="M20.79,21.49c-.12-.02-.23-.08-.32-.17-2.46-2.42-3.53-5.15-3.28-8.33.38-4.88,4.87-7.61,5.07-7.72.29-.18.67-.08.85.21.18.29.06.66-.21.85,0,0-4.13,2.52-4.47,6.76-.22,2.79.74,5.2,2.92,7.35.24.24.25.63,0,.88-.15.15-.36.21-.55.17Z"/></g></g></svg>