<?xml version="1.0" encoding="UTF-8"?><svg id="Capa_2" xmlns="http://www.w3.org/2000/svg" viewBox="0 0 57.33 13.06"><defs><style>.cls-1{fill:#fff;}</style></defs><g id="Capa_1-2"><path class="cls-1" d="M14.01,6.35h1.08l2.29,5.37h-1.23l-.49-1.2h-2.25l-.65,1.59s-.58-.23-1.06-.31l2.32-5.46ZM13.83,9.49h1.42l-.71-1.73-.71,1.73h0ZM19.76,11.81c-.73,0-1.3-.2-1.7-.6-.4-.4-.61-.99-.61-1.76v-3.05h1.17v3.02c0,.43.1.76.3.98.2.23.48.34.85.34s.65-.11.85-.33c.2-.22.3-.54.3-.95v-3.06h1.18v3.01c0,.79-.21,1.39-.62,1.8-.41.41-.99.61-1.72.61h0ZM22.63,11.73v-5.33h2.08c.41,0,.79.07,1.15.2.35.14.66.32.9.56.25.24.44.52.58.84.14.33.21.68.21,1.05h0c0,.39-.07.74-.21,1.06-.14.33-.33.61-.58.85-.25.24-.55.43-.9.56-.35.14-.74.21-1.15.21h-2.08ZM23.8,10.67h.91c.48,0,.87-.15,1.16-.44.3-.29.44-.68.44-1.15v-.02c0-.47-.15-.86-.44-1.16-.3-.3-.68-.45-1.16-.45h-.91v3.21h0ZM27.98,11.73v-5.33h1.18v5.33h-1.18ZM31.07,11.73v-4.25h-1.62v-1.08h4.42v1.08h-1.62v4.25h-1.17ZM37.82,11.6c-.36.15-.73.22-1.14.22s-.78-.07-1.13-.22c-.35-.14-.65-.34-.9-.59-.25-.25-.44-.54-.58-.88-.14-.34-.21-.69-.21-1.07v-.02c0-.37.07-.73.21-1.07.14-.34.34-.63.59-.88.25-.25.55-.44.9-.59.35-.14.73-.22,1.14-.22.54,0,1.02.12,1.45.37.43.25.77.58,1.01.99.24.42.36.88.36,1.38h0c0,.39-.07.75-.22,1.08-.14.34-.34.63-.59.88-.25.25-.55.44-.9.59h0ZM35.87,10.51c.25.15.53.23.83.23s.58-.07.83-.23c.25-.15.44-.35.57-.6.13-.25.2-.53.2-.83v-.02c0-.46-.15-.86-.46-1.18-.31-.33-.69-.49-1.16-.49-.31,0-.58.07-.83.22-.25.15-.44.35-.57.6-.13.25-.2.53-.2.83h0c0,.32.07.6.2.85.14.26.33.46.58.61h0ZM39.91,11.73v-5.33h2.44c.67,0,1.19.18,1.55.54.31.3.46.71.46,1.22v.02c0,.41-.1.76-.3,1.04-.2.28-.48.48-.84.61l1.3,1.9h-1.37l-1.14-1.71h-.92v1.71h-1.17ZM41.08,8.98h1.19c.28,0,.5-.07.66-.21.16-.14.24-.32.24-.55v-.02c0-.25-.08-.44-.24-.57-.16-.13-.39-.2-.68-.2h-1.17v1.53h0ZM46.65,11.8c-.41,0-.81-.07-1.21-.22-.39-.14-.74-.36-1.06-.64l.69-.83c.53.43,1.06.65,1.59.65.24,0,.43-.04.57-.13.14-.09.2-.21.2-.37v-.02c0-.1-.03-.19-.08-.26-.05-.07-.16-.14-.31-.21-.15-.07-.38-.14-.68-.21-.17-.04-.31-.08-.44-.12-.12-.04-.25-.09-.38-.14-.13-.05-.24-.11-.33-.17-.09-.06-.18-.13-.26-.2-.08-.08-.15-.17-.2-.26-.05-.1-.09-.21-.12-.33-.03-.12-.04-.26-.04-.41v-.02c0-.48.17-.87.52-1.16.35-.3.8-.44,1.35-.44.76,0,1.42.23,1.98.68l-.61.89c-.51-.35-.97-.53-1.38-.53-.22,0-.39.04-.51.13-.12.09-.18.2-.18.34v.02c0,.17.07.3.22.39.15.09.46.19.93.31.29.07.53.15.72.24.2.09.37.19.52.31.15.12.26.27.34.44.07.17.11.37.11.6v.02c0,.52-.18.92-.54,1.21-.36.29-.83.44-1.42.44h0Z"/><path class="cls-1" d="M52.19,6.83c-.33-.29-.84-.43-1.52-.43h-1.47v5.33h.66v-2.01h.78c.65,0,1.15-.16,1.51-.48s.54-.73.54-1.24-.17-.88-.49-1.16ZM51.66,8.85c-.23.21-.61.31-1.15.31h-.66v-2.2h.76c.48,0,.83.09,1.05.27.22.18.33.44.33.79s-.11.62-.34.83Z"/><path class="cls-1" d="M55.39,9.4c.72-.3,1.08-.81,1.08-1.55,0-.43-.15-.78-.46-1.05-.31-.27-.81-.4-1.52-.4h-1.51v5.33h.66v-2.14h1.08l1.75,2.14h.86l-1.94-2.33ZM54.41,9.04h-.77v-2.08h.89c.83,0,1.25.31,1.25.92,0,.38-.11.67-.32.87-.21.2-.56.3-1.05.3Z"/><path class="cls-1" d="M4.92,3.55c-.13-.86-.92-1.45-1.78-1.33-.04,0-.07.01-.11.02-.17,1.05.53,2.06,1.58,2.26.05,0,.09.01.14.02.16-.29.22-.62.17-.97Z"/><path class="cls-1" d="M9.14,11.74v-3.89h3.45l.68-1.49h-4.75c.08.1.15.2.23.3.13.17.18.38.14.58-.03.2-.15.38-.32.5-.11.08-.25.12-.4.12-.26,0-.52-.13-.65-.32l-.75-1.18h-2.09v1.49h2.6v3.8c-.08,0-.17,0-.25,0-1.06,0-2.07.07-3,.2v-1.95h.31v-4.64h-2.09v4.64h.31v2.21c-1.07.24-1.95.57-2.55.96,1.73-.51,4.23-.83,7.01-.83s5.29.32,7.01.83c-.99-.64-2.76-1.13-4.89-1.32Z"/><path class="cls-1" d="M2.31,3.06c-.17.25-.25.56-.2.88.1.68.74,1.16,1.42,1.06.06,0,.11-.02.16-.04-.74-.4-1.24-1.09-1.38-1.9Z"/><path class="cls-1" d="M7.51,3.02c-.09.46-.28.87-.59,1.22-.07.08-.1.14-.02.22.05.05.04.08-.02.12-.23.16-.46.32-.69.48-.07.05-.1.03-.13-.03-.05-.09-.11-.09-.2-.06-.59.21-1.18.23-1.77.01-1.06-.41-1.66-1.32-1.69-2.32C2.36,1.26,3.4.11,4.79,0c1.49-.11,2.77,1.1,2.74,2.59,0,.14-.02.28-.03.42ZM7.04,2.95c.21-1.14-.54-2.24-1.66-2.45-1.17-.22-2.28.54-2.49,1.69-.21,1.14.55,2.24,1.69,2.45,1.16.22,2.25-.53,2.47-1.69Z"/><path class="cls-1" d="M7.62,7.46c-.39-.62-.79-1.24-1.18-1.87,0-.01-.01-.03-.02-.04q-.15-.21.07-.37c.17-.12.35-.24.52-.37.08-.06.13-.05.19.03.23.31.46.61.7.92.25.32.5.65.74.98.22.31.13.7-.14.89-.26.18-.68.09-.87-.17Z"/><path class="cls-1" d="M3.82,3.94s-.04-.01-.06-.03c-.45-.44-.65-.94-.6-1.53.07-.9.89-1.4.93-1.42.05-.03.12-.01.16.04.03.05.01.12-.04.16,0,0-.76.46-.82,1.24-.04.51.13.95.54,1.35.04.04.05.12,0,.16-.03.03-.07.04-.1.03Z"/></g></svg>