<?xml version="1.0" encoding="UTF-8"?><svg id="Capa_2" xmlns="http://www.w3.org/2000/svg" viewBox="0 0 30.79 44.16"><defs><style>.cls-1{fill:#e94335;}.cls-2{fill:#4284f3;}.cls-3{fill:#34a753;}.cls-4{fill:#1a73e7;}.cls-5{fill:#fabb04;}</style></defs><g id="Capa_1-2"><g id="g842"><path id="path835" class="cls-3" d="M8.48,32.72c1.36,1.71,2.75,3.84,3.48,5.14.89,1.68,1.25,2.82,1.91,4.84.39,1.11.75,1.46,1.52,1.46.84,0,1.23-.57,1.52-1.46.61-1.91,1.09-3.37,1.84-4.75,1.48-2.66,3.34-5.02,5.16-7.3.5-.64,3.68-4.39,5.12-7.37,0,0,1.75-3.25,1.75-7.8,0-4.25-1.73-7.21-1.73-7.21l-5,1.34-3.05,8-.75,1.09-.16.2-.2.25-.34.41-.5.5-2.71,2.21-6.75,3.91-1.11,6.53Z"/><path id="path833" class="cls-5" d="M1.5,22.74c1.66,3.77,4.82,7.07,6.98,9.98l11.44-13.55s-1.61,2.11-4.52,2.11c-3.25,0-5.89-2.59-5.89-5.87,0-2.25,1.34-3.8,1.34-3.8l-7.75,2.07-1.59,9.05Z"/><path id="path831" class="cls-2" d="M20.05.7c3.8,1.23,7.05,3.8,9,7.59l-9.14,10.89s1.34-1.57,1.34-3.8c0-3.34-2.82-5.87-5.87-5.87-2.89,0-4.55,2.09-4.55,2.09v-6.87L20.05.7Z"/><path id="path829" class="cls-4" d="M3.59,5.5C5.87,2.8,9.85,0,15.35,0c2.66,0,4.68.7,4.68.7l-9.19,10.91h-6.5l-.75-6.12Z"/><path id="path827" class="cls-1" d="M1.5,22.74s-1.5-2.98-1.5-7.28c0-4.07,1.59-7.62,3.62-9.94l7.25,6.12L1.5,22.74Z"/></g></g></svg>