<?xml version="1.0" encoding="UTF-8"?><svg id="Capa_2" xmlns="http://www.w3.org/2000/svg" viewBox="0 0 51.01 51.01"><defs><style>.cls-1{fill:#fff;}.cls-2{fill:none;stroke:#fff;stroke-miterlimit:10;}</style></defs><g id="Capa_1-2"><circle class="cls-2" cx="25.51" cy="25.51" r="25.01"/><path class="cls-1" d="M12.04,19.77c.04-.31.06-.63.12-.94.15-.77.5-1.45,1.04-2.01.73-.74,1.43-1.52,2.21-2.2,1.19-1.04,2.48-1.03,3.63.04,1.22,1.14,2.39,2.34,3.53,3.56.85.91.84,2.3.02,3.23-.61.69-1.28,1.33-1.93,1.98-.12.12-.16.2-.07.37.65,1.33,1.58,2.45,2.58,3.52,1.03,1.1,2.15,2.08,3.42,2.88.36.23.75.42,1.15.65.43-.44.86-.88,1.29-1.3.29-.28.58-.57.89-.83.92-.76,2.31-.78,3.17.05,1.26,1.2,2.49,2.43,3.69,3.7.88.94.9,2.36.04,3.33-.79.89-1.62,1.76-2.51,2.56-.92.84-2.08,1.05-3.3.95-2.29-.19-4.32-1.12-6.29-2.21-2.42-1.34-4.57-3.03-6.46-5.06-2.3-2.47-4.21-5.21-5.4-8.4-.41-1.08-.73-2.19-.77-3.35,0-.06-.02-.12-.04-.18,0-.12,0-.25,0-.37ZM13.59,19.99c.03.31.05.61.09.92.02.14.05.28.08.41.42,1.86,1.2,3.58,2.19,5.2,2.65,4.3,6.18,7.66,10.73,9.9,1.4.69,2.85,1.25,4.43,1.39.96.08,1.81-.14,2.5-.85.59-.61,1.2-1.22,1.79-1.83.64-.66.64-1.22,0-1.88-.44-.45-.88-.88-1.32-1.33-.62-.62-1.23-1.24-1.85-1.84-.48-.46-1-.47-1.51-.04-.09.07-.17.16-.25.24-.6.6-1.2,1.21-1.81,1.81-.42.42-.89.52-1.4.27-.52-.26-1.03-.53-1.52-.84-1.64-1.04-3.05-2.34-4.33-3.8-.89-1.02-1.69-2.09-2.26-3.33-.45-.97-.38-1.27.39-2.02.61-.59,1.21-1.18,1.79-1.79.44-.47.43-.95.02-1.44-.05-.06-.1-.12-.16-.18-1.04-1.05-2.09-2.09-3.14-3.14-.11-.11-.24-.21-.38-.28-.45-.23-.9-.13-1.35.32-.59.58-1.16,1.18-1.76,1.75-.68.65-1,1.43-.97,2.37Z"/><path class="cls-1" d="M27.2,12.33c.61.16,1.23.29,1.83.48,1.96.6,3.71,1.59,5.25,2.95,1.63,1.44,2.9,3.15,3.77,5.15.47,1.08.8,2.19,1,3.35.07.41-.16.76-.56.86-.4.1-.8-.1-.91-.51-.16-.57-.27-1.15-.44-1.71-.76-2.53-2.2-4.62-4.24-6.29-1.71-1.4-3.65-2.3-5.81-2.71-.59-.11-.86-.39-.84-.84.01-.39.26-.59.58-.74.12,0,.25,0,.37,0Z"/><path class="cls-1" d="M26.02,18c0-.49.43-.85.93-.75,3.17.64,5.41,2.45,6.67,5.43.23.55.36,1.14.5,1.72.11.45-.14.85-.56.96-.4.1-.8-.15-.93-.58-.18-.58-.29-1.19-.54-1.73-1.06-2.33-2.86-3.75-5.37-4.27-.47-.1-.71-.37-.71-.78Z"/></g></svg>