<?xml version="1.0" encoding="UTF-8"?><svg id="Capa_2" xmlns="http://www.w3.org/2000/svg" viewBox="0 0 47.91 9.68"><defs><style>.cls-1{fill:#fff;}</style></defs><g id="Capa_1-2"><path class="cls-1" d="M29.83,6.14c-.58.72-1.14,1.42-1.71,2.13-.34.43-.69.86-1.03,1.29-.07.09-.14.12-.25.12-.26,0-.52,0-.82,0,1.12-1.4,2.22-2.77,3.33-4.15-1.47-1.83-2.94-3.66-4.42-5.51.07,0,.12,0,.17,0,.96,0,1.91,0,2.87,0,.11,0,.17.03.24.11.89,1.11,1.78,2.22,2.67,3.33.02.03.05.06.08.1.38-.47.75-.93,1.12-1.4.54-.68,1.08-1.35,1.62-2.03.07-.08.13-.12.24-.11.26,0,.52,0,.83,0-1.12,1.4-2.22,2.77-3.33,4.15,1.47,1.83,2.94,3.66,4.43,5.52-.08,0-.13,0-.17,0-.95,0-1.9,0-2.85,0-.11,0-.18-.03-.25-.12-.89-1.12-1.79-2.23-2.68-3.35-.02-.02-.03-.04-.06-.07ZM34.27,8.92c-.05-.07-.08-.11-.11-.14-.82-1.02-1.63-2.04-2.45-3.05-1.3-1.62-2.6-3.24-3.9-4.86-.03-.04-.08-.09-.12-.09-.38,0-.77,0-1.18,0,.04.06.07.1.1.14.41.51.82,1.02,1.23,1.53,1.71,2.13,3.41,4.25,5.12,6.38.04.05.1.1.15.1.37,0,.75,0,1.16,0Z"/><path class="cls-1" d="M19.27,9.56h-3.05c-.08,0-.17-.01-.25-.02-.29-.03-.59-.03-.88-.1-1.06-.24-1.72-.9-1.96-1.97-.1-.45-.1-.91-.11-1.37,0-.85,0-1.7,0-2.55,0-.46,0-.93.11-1.39.23-.99.82-1.64,1.8-1.92.37-.11.76-.14,1.14-.14,1.2,0,2.39,0,3.59.01.27,0,.55.04.82.11.84.2,1.44.69,1.76,1.5.18.45.23.92.23,1.4,0,1.09,0,2.18,0,3.26,0,.33-.03.66-.08.98-.07.47-.26.9-.57,1.26-.51.59-1.18.84-1.93.89-.21.02-.41.03-.62.04ZM17.75,8.72s0-.01,0-.02c.34,0,.68,0,1.03,0,.47-.01.95,0,1.42-.09.68-.14,1.12-.53,1.31-1.2.09-.31.1-.63.11-.94,0-.96.01-1.92,0-2.88,0-.4,0-.81-.08-1.21-.14-.69-.54-1.15-1.23-1.33-.39-.1-.8-.1-1.2-.11-.78,0-1.57,0-2.35,0-.47,0-.94,0-1.4.08-.71.13-1.18.53-1.37,1.24-.09.34-.1.69-.1,1.04,0,1.01,0,2.03,0,3.04,0,.3.03.6.07.9.08.48.32.88.74,1.14.31.19.66.27,1.01.28.68.03,1.36.04,2.03.05Z"/><path class="cls-1" d="M17.75,2.38c1.34,0,2.44,1.1,2.44,2.44,0,1.34-1.1,2.43-2.43,2.44-1.34,0-2.44-1.09-2.44-2.43,0-1.34,1.09-2.44,2.43-2.45ZM16.18,4.82c0,.87.7,1.57,1.57,1.58.87,0,1.58-.7,1.58-1.57,0-.87-.7-1.58-1.57-1.58-.88,0-1.58.7-1.58,1.57Z"/><path class="cls-1" d="M20.28,2.86c-.32,0-.57-.25-.57-.57,0-.32.26-.57.57-.57.31,0,.57.26.57.57,0,.31-.26.57-.57.57Z"/><path class="cls-1" d="M0,8.6c0-2.51,0-5.02,0-7.53,0-.02.01-.03.02-.05.06-.34.24-.59.54-.76.12-.07.27-.1.4-.15,2.51,0,5.02,0,7.53,0,.02,0,.03.01.05.02.52.09.91.55.91,1.08,0,2.42,0,4.84,0,7.27,0,.6-.49,1.09-1.09,1.09-2.42,0-4.84,0-7.27,0-.4,0-.72-.18-.93-.53C.09,8.9.06,8.74,0,8.6ZM6.25,8.82h.07c.66,0,1.33,0,1.99,0,.26,0,.41-.16.41-.42,0-2.38,0-4.76,0-7.14,0-.27-.15-.42-.43-.42-2.38,0-4.75,0-7.13,0-.28,0-.43.15-.43.43,0,2.37,0,4.75,0,7.12,0,.28.15.43.43.43,1.27,0,2.55,0,3.82,0,.03,0,.06,0,.1,0v-3.01h-1.1v-1.15h1.1s0-.08,0-.12c0-.31,0-.62.02-.93.07-.7.71-1.35,1.41-1.42.33-.03.67-.02,1-.02,0,0,0,0,.01,0v1.13c-.24,0-.48,0-.72,0-.3,0-.54.17-.56.43-.03.3,0,.61,0,.92h1.31c-.06.39-.13.76-.19,1.15h-1.14v3.01Z"/><path class="cls-1" d="M38.23,8.71V.97s.02-.03.02-.05c.06-.3.22-.55.47-.71.14-.09.31-.14.47-.2,2.58,0,5.16,0,7.75,0,.01,0,.03.02.04.02.56.12.92.57.92,1.14,0,2.46,0,4.92,0,7.38,0,.63-.5,1.13-1.13,1.13-2.47,0-4.94,0-7.41,0-.38,0-.68-.16-.91-.46-.12-.15-.17-.32-.22-.5ZM43.07,8.92c1.21,0,2.42,0,3.63,0,.31,0,.46-.15.46-.46,0-2.42,0-4.84,0-7.25,0-.31-.15-.45-.45-.45-2.42,0-4.84,0-7.26,0-.3,0-.45.15-.45.45,0,2.42,0,4.84,0,7.25,0,.31.14.46.45.46,1.21,0,2.42,0,3.63,0Z"/><path class="cls-1" d="M43.37,7.99h-1.28V3.73h1.28v.57c.13-.2.28-.35.46-.45.33-.19.69-.23,1.05-.18.19.02.38.07.55.14.38.16.58.48.67.87.05.24.09.5.09.75.01.83,0,1.67,0,2.5,0,.02,0,.04,0,.07h-1.3s0-.07,0-.1c0-.65,0-1.3,0-1.95,0-.21-.02-.43-.06-.64-.08-.4-.36-.55-.75-.51-.4.05-.61.26-.68.67-.02.15-.04.31-.04.46,0,.65,0,1.31,0,1.96v.11Z"/><path class="cls-1" d="M41.25,3.73v4.26h-1.31V3.73h1.31Z"/><path class="cls-1" d="M40.62,1.59c.43,0,.77.35.77.78,0,.43-.35.77-.78.77-.43,0-.77-.35-.77-.79,0-.43.35-.76.78-.76Z"/></g></svg>