<?xml version="1.0" encoding="UTF-8"?><svg id="Capa_2" xmlns="http://www.w3.org/2000/svg" viewBox="0 0 58.28 58.3"><defs><style>.cls-1{fill:#fff;}</style></defs><g id="Capa_1-2"><path class="cls-1" d="M6,28.32v-4.71c-.56-.17-.93-.12-1.26.46-.58,1.02-1.82,1.41-2.93,1.06C.71,24.78-.03,23.74,0,22.58c.03-1.13.81-2.11,1.92-2.41,1.12-.31,2.33.15,2.88,1.18.24.45.51.58.96.55.33-.02.67,0,1,.02.64.04.91.31.91.97,0,1.79,0,3.57,0,5.4h2.42v-10.19c-.46,0-.95-.04-1.42.02-.16.02-.31.31-.42.49-.6.97-1.76,1.46-2.85,1.18-1.09-.28-1.89-1.25-1.96-2.39-.07-1.11.65-2.17,1.72-2.56,1.2-.44,2.5.03,3.13,1.19.18.33.38.44.73.42.53-.03,1.06,0,1.59,0,.95,0,1.19.25,1.19,1.18,0,3.32-.01,6.65-.02,9.97,0,.22,0,.43,0,.73,1.06,0,2.09,0,3.12,0,.21,0,.44-.01.64.05.53.17.58.62.6,1.1.16,4.36,2.03,7.84,5.57,10.34,7.91,5.58,19.03.67,20.29-8.92.07-.54.08-1.1.12-1.64.05-.64.33-.92.97-.93,1.1-.01,2.2,0,3.38,0,0-.24,0-.45,0-.66,0-3.34-.01-6.69-.02-10.03,0-.95.24-1.19,1.17-1.2.22,0,.43,0,.65,0,.82.04,1.48.03,2.06-.85.8-1.22,2.64-1.2,3.69-.17,1.07,1.05,1.04,2.79-.08,3.78-1.1.98-2.93.93-3.69-.31-.58-.94-1.27-.8-2.11-.78v10.18h2.43c0-.19,0-.39,0-.6,0-1.57,0-3.15,0-4.72,0-.77.25-1.02,1.01-1.05.16,0,.32-.02.47,0,.68.06,1.16-.08,1.56-.78.57-.98,1.85-1.29,2.92-.9,1.04.38,1.74,1.4,1.71,2.51-.03,1.13-.8,2.11-1.9,2.42-1.07.3-2.26-.09-2.82-1.07-.32-.56-.69-.66-1.26-.48v4.71c.56,0,1.13,0,1.69,0,1.1,0,2.2,0,3.3,0,.7,0,.99.3,1,1.01,0,.83,0,1.65,0,2.48,0,1.67-1.07,2.78-2.73,2.86-2.9.14-4.93,1.92-5.35,4.76-.24,1.61.19,3.1,1.33,4.24,1.24,1.24,1.38,3.08-.12,4.45-1.19,1.08-2.29,2.27-3.43,3.41-1.33,1.33-2.76,1.36-4.16.1-1.58-1.42-3.4-1.86-5.41-1.18-2,.68-3.24,2.08-3.65,4.18-.06.33-.06.66-.08,1-.1,1.59-1.21,2.65-2.81,2.66-1.77,0-3.54,0-5.31,0-1.78,0-2.87-1.05-2.94-2.83-.12-3.14-2.61-5.45-5.73-5.31-1.28.06-2.4.56-3.35,1.42-1.47,1.34-2.87,1.3-4.29-.12-1.15-1.15-2.31-2.31-3.46-3.46-1.36-1.36-1.38-2.77-.1-4.21,1.41-1.59,1.84-3.41,1.14-5.42-.69-2-2.11-3.22-4.2-3.62-.33-.06-.66-.05-1-.08-1.55-.11-2.61-1.22-2.63-2.78,0-.87,0-1.73,0-2.6,0-.67.31-.97.98-.97,1.65,0,3.3,0,5.02,0ZM1.66,30c0,.65,0,1.25,0,1.86.01.74.38,1.11,1.12,1.16.33.02.67.02,1,.07,2.78.49,4.68,2.07,5.6,4.72.92,2.67.34,5.07-1.54,7.16-.59.66-.58,1.15.05,1.78,1.18,1.18,2.36,2.37,3.54,3.55.78.78,1.18.78,2,.04,1.29-1.17,2.8-1.81,4.54-1.85,3.98-.09,7.12,2.89,7.29,6.87.04.92.39,1.27,1.32,1.27,1.71,0,3.42,0,5.13,0,.92,0,1.26-.35,1.31-1.28.16-3,1.62-5.14,4.39-6.29,2.74-1.14,5.27-.63,7.5,1.33.75.66,1.19.66,1.92-.06,1.17-1.17,2.34-2.33,3.5-3.5.74-.74.75-1.17.03-1.96-2.4-2.63-2.51-6.52-.24-9.28,1.33-1.63,3.06-2.48,5.16-2.56.59-.02,1.19-.14,1.28-.79.11-.74.02-1.51.02-2.24h-12.77c-.62,8.2-7.34,13.73-14.5,13.81-7.49.09-14.31-5.72-14.85-13.81H1.66ZM2.6,23.6c.51,0,.94-.43.94-.94,0-.51-.43-.94-.94-.94-.51,0-.94.43-.94.94,0,.51.42.94.94.94ZM56.62,22.68c.01-.51-.41-.95-.92-.96-.51-.01-.95.41-.96.92-.01.51.4.95.92.96.51.01.95-.41.96-.92ZM53.19,17.3c.02-.5-.41-.95-.92-.97-.51-.02-.94.39-.96.91-.02.53.38.94.9.96.52.01.95-.39.97-.9ZM6.97,17.25c-.01-.52-.44-.93-.95-.92-.5.01-.94.46-.92.96.01.51.44.92.96.91.53,0,.92-.42.91-.95Z"/><path class="cls-1" d="M37.83,12.6c-1.82-1.04-2.55-2.43-2.14-4.04.39-1.5,1.7-2.54,3.22-2.55,1.54-.01,2.89,1,3.29,2.46.46,1.66-.23,3.01-2.14,4.16.18.05.33.09.47.13,2.66.71,4.54,2.99,4.75,5.74.09,1.14-.43,1.92-1.38,2.47-1.1.63-2.32.92-3.55.95-1.49.04-2.85.19-4.19,1.06-1.49.97-3.33,1.13-5.1,1.26-2.67.2-5.31.1-7.86-.78-.87-.3-1.66-.87-2.49-1.29-.21-.11-.46-.19-.7-.18-1.5.03-2.99-.05-4.43-.5-.04-.01-.08-.02-.11-.03-2.17-.7-2.85-1.89-2.26-4.1.64-2.41,2.21-3.92,4.59-4.61.13-.04.25-.07.49-.14-.9-.4-1.56-.92-1.96-1.72-.4-.81-.48-1.65-.21-2.52.47-1.49,1.83-2.43,3.42-2.36,1.46.06,2.77,1.18,3.09,2.64.35,1.6-.39,2.98-2.16,3.93.58.22,1.13.44,1.7.62.1.03.28-.09.39-.19,4.05-3.56,9.18-3.57,13.18-.02.13.11.38.18.54.14.51-.14.99-.34,1.55-.54ZM29.53,22.67c1.63-.02,3.64-.19,5.56-.94,1.82-.72,2.18-1.41,1.8-3.31-.8-3.93-4.15-6.54-8.22-6.38-3.72.14-6.87,3.15-7.33,6.99-.16,1.31.09,1.82,1.26,2.42.4.21.82.37,1.25.51,1.72.55,3.49.71,5.69.72ZM21.18,14.66c-.12-.08-.17-.11-.22-.13-2.87-1.15-6.21,1.02-6.29,4.12,0,.28.23.69.48.84,1.37.8,2.88.87,4.46.85-.03-2.07.47-3.94,1.58-5.66ZM37.12,14.67c1.09,1.7,1.59,3.58,1.56,5.65,1.53.03,2.98-.08,4.34-.75.51-.25.69-.63.6-1.2-.16-1.02-.54-1.92-1.25-2.68-1.35-1.45-3.7-1.93-5.25-1.02ZM21.03,9.36c0-.95-.78-1.71-1.74-1.69-.92.01-1.68.78-1.69,1.7,0,.93.79,1.73,1.72,1.73.94,0,1.71-.78,1.7-1.73ZM37.25,9.39c0,.95.78,1.72,1.73,1.71.91-.02,1.68-.79,1.7-1.7.01-.93-.78-1.73-1.72-1.73-.96,0-1.71.76-1.71,1.72Z"/><path class="cls-1" d="M29.17,28.32c3.18,0,6.37,0,9.55,0,.95,0,1.19.25,1.17,1.18-.1,5.3-4.38,9.88-9.69,10.37-5.42.5-10.41-3.09-11.55-8.33-.15-.71-.21-1.44-.26-2.16-.05-.78.26-1.06,1.04-1.07,3.24,0,6.48,0,9.73,0ZM38.2,30.02h-18.11c.33,4.57,4.35,8.23,9.02,8.24,4.7.01,8.75-3.64,9.08-8.24Z"/><path class="cls-1" d="M29.17,9.69c-2.68.01-4.86-2.13-4.87-4.8C24.29,2.19,26.46,0,29.14,0c2.66,0,4.83,2.17,4.84,4.83,0,2.67-2.14,4.84-4.81,4.85ZM32.33,4.86c0-1.76-1.41-3.19-3.16-3.21-1.76-.01-3.2,1.4-3.22,3.15-.02,1.8,1.4,3.23,3.19,3.23,1.77,0,3.18-1.41,3.19-3.17Z"/></g></svg>